<?xml version="1.0" encoding="UTF-8" standalone="no"?>
<!-- Created with Inkscape (http://www.inkscape.org/) -->

<svg
   xmlns:dc="http://purl.org/dc/elements/1.1/"
   xmlns:cc="http://creativecommons.org/ns#"
   xmlns:rdf="http://www.w3.org/1999/02/22-rdf-syntax-ns#"
   xmlns:svg="http://www.w3.org/2000/svg"
   xmlns="http://www.w3.org/2000/svg"
   xmlns:xlink="http://www.w3.org/1999/xlink"
   xmlns:sodipodi="http://sodipodi.sourceforge.net/DTD/sodipodi-0.dtd"
   xmlns:inkscape="http://www.inkscape.org/namespaces/inkscape"
   width="128"
   height="128"
   id="svg3059"
   version="1.1"
   inkscape:version="0.48.1 r9760"
   sodipodi:docname="profile_pic.svg"
   inkscape:export-filename="/home/gamerz/workspace/wave/wave-extensions-gallery/gplus/profile_pic.png"
   inkscape:export-xdpi="175.78125"
   inkscape:export-ydpi="175.78125">
  <defs
     id="defs3061">
    <linearGradient
       id="linearGradient3877">
      <stop
         style="stop-color:#aac542;stop-opacity:1;"
         offset="0"
         id="stop3879" />
      <stop
         style="stop-color:#92b24b;stop-opacity:1;"
         offset="1"
         id="stop3881" />
    </linearGradient>
    <linearGradient
       inkscape:collect="always"
       xlink:href="#linearGradient3877"
       id="linearGradient3883"
       x1="64.023834"
       y1="943.00281"
       x2="64.023834"
       y2="1045.2103"
       gradientUnits="userSpaceOnUse" />
    <mask
       maskUnits="userSpaceOnUse"
       id="mask4360">
      <path
         id="path4362"
         d="m 120.29425,982.37622 c -0.17209,-4.36903 -1.64915,-9.26644 -4.79203,-11.87293 -8.11312,-3.78213 -4.3478,5.44674 -9.95498,6.54782 -5.607155,1.1011 -5.934245,-5.41976 -5.934245,-5.41976 l 0,0 -0.0726,-28.10056 c 0,0 -27.867108,0.10789 -27.867108,0.10789 0,0 -6.5209,0.32709 -5.41979,5.9342 0.89462,4.55578 7.15944,2.92317 7.4463,6.50288 0.0662,0.82608 -0.18928,1.93082 -0.89842,3.45202 -2.60652,3.14286 -7.50399,4.61984 -11.873047,4.792 -1.612858,0.0635 -3.130222,-0.0733 -4.456792,-0.34783 -0.05885,-0.007 -0.120907,-0.0191 -0.179755,-0.0266 -3.771332,-0.47721 -7.599498,-1.92422 -9.812986,-4.56527 -3.824028,-8.09341 5.424244,-4.37586 6.496338,-9.98861 0.781134,-4.08939 -2.451128,-5.34371 -4.27306,-5.72948 l -29.583045,0.0765 c 0,0 0.297452,28.1988 0.297452,28.1988 0,0 0.327091,6.52084 5.934246,5.41976 5.607155,-1.10109 1.841869,-10.32097 9.954989,-6.53885 3.142883,2.60651 4.619856,7.49493 4.791996,11.86396 0.06349,1.61285 -0.07329,3.13021 -0.34783,4.45677 -0.0071,0.0589 -0.01908,0.12091 -0.02639,0.17974 -0.477207,3.77131 -1.924185,7.60846 -4.565269,9.82191 -8.093468,3.82402 -4.375902,-5.4242 -9.988675,-6.4963 -5.612772,-1.07209 -5.906159,5.45035 -5.906159,5.45035 l 0.06313,27.93887 29.349489,-0.076 c 1.827103,0.3939 5.022629,1.6552 4.246097,5.7206 -1.072113,5.6128 -10.320385,1.8952 -6.496339,9.9886 2.21347,2.6411 6.050641,4.088 9.821974,4.5653 0.05885,0.01 0.111812,0.02 0.17066,0.027 1.32657,0.2744 2.843951,0.4113 4.45681,0.3478 4.369056,-0.1721 9.266506,-1.6491 11.873026,-4.792 3.78216,-8.1131 -5.44679,-4.3478 -6.54788,-9.9549 -1.10109,-5.6071 5.41979,-5.9342 5.41979,-5.9342 l 28.127658,-0.1 -0.076,-29.36727 c 0.421255,-1.84253 1.709915,-4.88122 5.693995,-4.12021 5.61278,1.07208 1.89518,10.31128 9.98865,6.48731 2.64106,-2.21349 4.08808,-6.04163 4.5653,-9.81294 0.007,-0.0589 0.0194,-0.1209 0.0266,-0.17974 0.27447,-1.32656 0.41137,-2.84392 0.34783,-4.45677 z"
         inkscape:connector-curvature="0"
         style="fill:#ffffff;fill-opacity:1;stroke:#ffffff;stroke-width:1;stroke-linejoin:round;stroke-miterlimit:4;stroke-opacity:1;stroke-dasharray:none" />
    </mask>
  </defs>
  <sodipodi:namedview
     id="base"
     pagecolor="#ffffff"
     bordercolor="#666666"
     borderopacity="1.0"
     inkscape:pageopacity="0.0"
     inkscape:pageshadow="2"
     inkscape:zoom="3.959798"
     inkscape:cx="89.479278"
     inkscape:cy="55.687359"
     inkscape:document-units="px"
     inkscape:current-layer="layer1"
     showgrid="false"
     inkscape:window-width="1280"
     inkscape:window-height="723"
     inkscape:window-x="0"
     inkscape:window-y="0"
     inkscape:window-maximized="1" />
  <metadata
     id="metadata3064">
    <rdf:RDF>
      <cc:Work
         rdf:about="">
        <dc:format>image/svg+xml</dc:format>
        <dc:type
           rdf:resource="http://purl.org/dc/dcmitype/StillImage" />
        <dc:title></dc:title>
      </cc:Work>
    </rdf:RDF>
  </metadata>
  <g
     inkscape:label="Layer 1"
     inkscape:groupmode="layer"
     id="layer1"
     transform="translate(0,-924.36218)">
    <path
       style="fill:url(#linearGradient3883);fill-opacity:1;stroke:#6c8a47;stroke-width:1;stroke-linejoin:round;stroke-miterlimit:4;stroke-opacity:1;stroke-dasharray:none"
       inkscape:connector-curvature="0"
       d="m 120.29425,982.37622 c -0.17209,-4.36903 -1.64915,-9.26644 -4.79203,-11.87293 -8.11312,-3.78213 -4.3478,5.44674 -9.95498,6.54782 -5.607155,1.1011 -5.934245,-5.41976 -5.934245,-5.41976 l 0,0 -0.0726,-28.10056 c 0,0 -27.867108,0.10789 -27.867108,0.10789 0,0 -6.5209,0.32709 -5.41979,5.9342 0.89462,4.55578 7.15944,2.92317 7.4463,6.50288 0.0662,0.82608 -0.18928,1.93082 -0.89842,3.45202 -2.60652,3.14286 -7.50399,4.61984 -11.873047,4.792 -1.612858,0.0635 -3.130222,-0.0733 -4.456792,-0.34783 -0.05885,-0.007 -0.120907,-0.0191 -0.179755,-0.0266 -3.771332,-0.47721 -7.599498,-1.92422 -9.812986,-4.56527 -3.824028,-8.09341 5.424244,-4.37586 6.496338,-9.98861 0.781134,-4.08939 -2.451128,-5.34371 -4.27306,-5.72948 l -29.583045,0.0765 c 0,0 0.297452,28.1988 0.297452,28.1988 0,0 0.327091,6.52084 5.934246,5.41976 5.607155,-1.10109 1.841869,-10.32097 9.954989,-6.53885 3.142883,2.60651 4.619856,7.49493 4.791996,11.86396 0.06349,1.61285 -0.07329,3.13021 -0.34783,4.45677 -0.0071,0.0589 -0.01908,0.12091 -0.02639,0.17974 -0.477207,3.77131 -1.924185,7.60846 -4.565269,9.82191 -8.093468,3.82402 -4.375902,-5.4242 -9.988675,-6.4963 -5.612772,-1.07209 -5.906159,5.45035 -5.906159,5.45035 l 0.06313,27.93887 29.349489,-0.076 c 1.827103,0.3939 5.022629,1.6552 4.246097,5.7206 -1.072113,5.6128 -10.320385,1.8952 -6.496339,9.9886 2.21347,2.6411 6.050641,4.088 9.821974,4.5653 0.05885,0.01 0.111812,0.02 0.17066,0.027 1.32657,0.2744 2.843951,0.4113 4.45681,0.3478 4.369056,-0.1721 9.266506,-1.6491 11.873026,-4.792 3.78216,-8.1131 -5.44679,-4.3478 -6.54788,-9.9549 -1.10109,-5.6071 5.41979,-5.9342 5.41979,-5.9342 l 28.127658,-0.1 -0.076,-29.36727 c 0.421255,-1.84253 1.709915,-4.88122 5.693995,-4.12021 5.61278,1.07208 1.89518,10.31128 9.98865,6.48731 2.64106,-2.21349 4.08808,-6.04163 4.5653,-9.81294 0.007,-0.0589 0.0194,-0.1209 0.0266,-0.17974 0.27447,-1.32656 0.41137,-2.84392 0.34783,-4.45677 z"
       id="svg_1" />
    <path
       inkscape:connector-curvature="0"
       id="path524"
       style="fill:none;fill-opacity:0;fill-rule:nonzero;stroke:#d1f2ff;stroke-width:4;stroke-linecap:round;stroke-linejoin:round;stroke-miterlimit:4;stroke-opacity:0.90980393000000004;stroke-dasharray:none"
       d="m 94,966.78304 c -0.724141,0 -1.385574,0.26176 -1.936766,0.65893 -0.830087,0.59894 -1.455739,1.48279 -1.943077,2.42756 -0.485047,0.94718 -0.825513,1.9619 -1.02136,2.85984 l 4.58e-4,0 -5.84783,26.09157 0.697798,0.16334 -0.692942,-0.1836 c -0.456125,1.79972 -0.862151,3.33172 -1.253284,4.60682 -0.293494,0.9567 -0.578968,1.7686 -0.867022,2.4385 -0.430943,1.0073 -0.870467,1.6817 -1.309133,2.0738 -0.219906,0.1975 -0.43809,0.3306 -0.676319,0.4205 -0.238518,0.088 -0.501663,0.1363 -0.81549,0.1363 -0.37825,0 -0.717267,-0.093 -1.055146,-0.2801 -0.504235,-0.2818 -1.008758,-0.8086 -1.468041,-1.6085 -0.459282,-0.7971 -0.867598,-1.8569 -1.195738,-3.1462 l -0.692647,0.1848 0.696081,-0.1708 -7.044429,-30.06135 2.28e-4,0 c -0.221623,-0.97207 -0.569234,-2.31598 -1.270759,-3.48517 -0.352478,-0.58366 -0.799733,-1.12926 -1.385864,-1.53693 -0.583839,-0.40825 -1.311704,-0.66249 -2.132055,-0.65988 l -0.160635,0 c -0.820637,0 -1.548502,0.25163 -2.132342,0.65988 -0.439525,0.30514 -0.801454,0.68963 -1.103252,1.10789 -0.452123,0.62791 -0.773678,1.33345 -1.019068,2.01814 -0.244531,0.68444 -0.411178,1.35018 -0.534301,1.89607 l 8.87e-4,0 -7.04529,30.06255 0.696082,0.1707 -0.692646,-0.1846 c -0.436663,1.7194 -1.01993,3.0287 -1.668479,3.8562 -0.323561,0.4148 -0.658573,0.7089 -0.995018,0.8982 -0.338162,0.1885 -0.676897,0.2793 -1.054862,0.2801 -0.27889,0 -0.518266,-0.037 -0.73502,-0.1101 -0.377393,-0.1254 -0.705533,-0.3493 -1.049423,-0.7534 -0.513686,-0.6021 -1.017635,-1.6222 -1.520443,-3.0874 -0.505667,-1.464 -1.018781,-3.3655 -1.617223,-5.72736 l -0.692931,0.1836 0.697801,-0.16322 -5.848693,-26.0981 -9.61e-4,-0.006 c -0.287767,-1.2136 -0.800308,-2.61996 -1.574272,-3.78466 -0.388845,-0.58139 -0.845261,-1.10526 -1.396461,-1.49927 -0.54823,-0.39295 -1.207088,-0.65101 -1.927795,-0.64949 -0.352191,0 -0.693789,0.0743 -1.005038,0.2088 -0.586042,0.2542 -1.05672,0.69848 -1.450863,1.23205 -0.687662,0.93781 -1.176896,2.18103 -1.569374,3.53667 -0.583411,2.03186 -0.925324,4.3195 -1.127219,6.11124 -0.201093,1.79029 -0.259277,3.08067 -0.259824,3.09234 l 1.430223,0.0674 0.0015,-0.0347 c 0.0179,-0.37428 0.201866,-3.71294 0.86167,-6.9043 0.327282,-1.59355 0.780721,-3.15163 1.350702,-4.24402 0.282815,-0.54619 0.593778,-0.96992 0.894718,-1.23062 0.150324,-0.13101 0.296354,-0.22285 0.438093,-0.28197 0.142298,-0.0588 0.280605,-0.0877 0.435228,-0.0883 0.390563,0 0.745331,0.1293 1.109265,0.38659 0.542891,0.38274 1.065453,1.07629 1.47921,1.88924 0.416045,0.81129 0.729582,1.73262 0.918277,2.53622 l 0.695796,-0.17134 -0.697513,0.16344 5.849839,26.10443 0.0028,0.0136 c 0.458708,1.80863 0.869026,3.35943 1.27362,4.67783 0.303801,0.9894 0.603596,1.8477 0.922287,2.5892 0.478754,1.1101 0.996733,1.97 1.673346,2.5832 0.337878,0.3049 0.716983,0.542 1.129021,0.6964 0.412036,0.1549 0.852706,0.2273 1.3097,0.2266 0.615334,0 1.210915,-0.1599 1.744069,-0.4612 0.802884,-0.4529 1.463459,-1.1953 2.012653,-2.1491 0.549191,-0.9563 0.993299,-2.1349 1.346921,-3.5192 l 0.0018,-0.013 7.048437,-30.07596 4.59e-4,0 c 0.204444,-0.91633 0.538312,-2.12941 1.094088,-3.04525 0.276315,-0.45887 0.601306,-0.83789 0.971536,-1.09416 0.372525,-0.25535 0.78485,-0.40475 1.328312,-0.40705 l 0.160635,0 c 0.543181,0 0.955502,0.15166 1.32774,0.40705 0.278033,0.19274 0.529721,0.45285 0.755354,0.76561 0.338733,0.46832 0.613331,1.0537 0.826364,1.65176 0.214179,0.59778 0.367941,1.20598 0.484193,1.72234 l 4.59e-4,0 7.047866,30.07586 0.0019,0.013 c 0.472451,1.8451 1.101246,3.3268 1.934481,4.3999 0.417192,0.5348 0.890509,0.9677 1.425098,1.2681 0.533438,0.3011 1.129015,0.4625 1.744636,0.4613 0.406315,0 0.799163,-0.056 1.171116,-0.178 0.65342,-0.2116 1.223224,-0.627 1.696252,-1.1901 0.712123,-0.848 1.252435,-2.0146 1.787306,-3.5579 0.5323,-1.5442 1.050571,-3.4729 1.652452,-5.84726 l 0.003,-0.0136 5.850986,-26.10636 4.66e-4,0 c 0.221613,-1.02973 0.69751,-2.30896 1.341182,-3.26666 0.32042,-0.47997 0.680332,-0.87743 1.046852,-1.13897 0.369366,-0.26241 0.728147,-0.39274 1.115562,-0.39392 l 0,-1.46433"
       mask="url(#mask4360)" />
  </g>
</svg>
